<svg xmlns="http://www.w3.org/2000/svg" width="512" height="512" viewBox="0 0 135.46666 135.46667">
  <defs/>
  <path fill="#f7df1e" stroke="#404040" stroke-opacity=".270707" stroke-width="6.49285" d="m 201.24854,122.23986 -32.97691,11.03974 -31.12448,-15.51193 -11.03973,-32.976914 15.51193,-31.124474 32.97691,-11.039738 31.12447,15.511928 11.03974,32.976916 z" transform="matrix(-0.42454061,1.2329555,-1.2329555,-0.42454061,248.95623,-106.29743)"/>
  <path fill="#606060" fill-rule="evenodd" d="m 45.652344,12.751953 -0.246094,0.09961 44.408203,109.863277 0.246094,-0.0996 z" color="#000" style="-inkscape-stroke:none"/>
  <path fill="#606060" fill-rule="evenodd" d="M45.396484 12.800781l-.9375 109.474609.265625.002.9375-109.474606zM90.742187 13.189453l-.9375 109.474607.265625.002.9375-109.474614z" color="#000" style="-inkscape-stroke:none"/>
  <path fill="#606060" fill-rule="evenodd" d="m -0.68164062,67.599609 v 0.267578 H 134.78516 v -0.267578 z" color="#000" style="-inkscape-stroke:none"/>
  <path fill="#606060" fill-rule="evenodd" d="M131.93387 66.549911l3.20545 1.178723-3.20545 1.178723c.5121-.695918.50915-1.648054 0-2.357446zM114.9082 19.869141L19.117187 115.6582 19.306641 115.8457 115.0957 20.056641z" color="#000" style="-inkscape-stroke:none"/>
  <path fill="#606060" fill-rule="evenodd" d="m 112.14874,21.141817 3.10007,-1.433108 -1.43311,3.100075 c -0.12998,-0.854195 -0.80533,-1.52537 -1.66696,-1.666967 z" color="#000" style="-inkscape-stroke:none"/>
  <g>
    <path fill="#606060" fill-rule="evenodd" d="M 59.162109,0.171875 V 135.63867 h 0.267578 V 0.171875 Z" color="#000" style="-inkscape-stroke:none"/>
    <path fill="#606060" fill-rule="evenodd" d="m 58.112664,3.0236494 1.178723,-3.20544501 1.178723,3.20544511 c -0.695918,-0.5120961 -1.648054,-0.5091453 -2.357446,-10e-8 z" color="#000" style="-inkscape-stroke:none"/>
  </g>
  <g>
    <g fill="#404040" stroke-width=".264583" aria-label="FN" font-family="Arial Black" font-size="52.9167px" font-weight="900" style="line-height:1.25;-inkscape-font-specification:'Arial Black, Heavy';font-variant-ligatures:none">
      <path d="M31.934461 48.793912H60.87328v8.139043H43.690856v6.614588h14.676116v7.648116H43.690856V86.67276H31.934461zM67.307002 48.793912H78.236574L92.499277 69.748718V48.793912H103.5322V86.67276H92.499277L78.314088 65.872984V86.67276H67.307002z"/>
    </g>
  </g>
  <g>
    <path fill="none" stroke="#404040" stroke-width="6.49285" d="m 201.24854,122.23986 -32.97691,11.03974 -31.12448,-15.51193 -11.03973,-32.976914 15.51193,-31.124474 32.97691,-11.039738 31.12447,15.511928 11.03974,32.976916 z" transform="matrix(-0.42454061,1.2329555,-1.2329555,-0.42454061,248.95623,-106.29743)"/>
  </g>
</svg>
